{"title":"Rise.Of.The.Damned.2011.HDTV.XviD-NoGRP","uid":6889312,"size":998057868,"categoryP":"video","categoryS":"movies","magnet":"?xt=urn:btih:1c6fdb7e54231dd2a22f33d8d50fee6cd5037147&amp;dn=Rise.Of.The.Damned.2011.HDTV.XviD-NoGRP&amp;tr=udp%3A%2F%2Ftracker.openbittorrent.com%3A80&amp;tr=udp%3A%2F%2Fopen.demonii.com%3A1337&amp;tr=udp%3A%2F%2Ftracker.coppersurfer.tk%3A6969&amp;tr=udp%3A%2F%2Fexodus.desync.com%3A6969","seeders":0,"leechers":1,"uploader":"sceneline","files":71,"time":1323948783,"description":"- &lt;a href=&quot;\nhttp://www.Speed.Cd&quot; rel=&quot;nofollow&quot; target=&quot;_NEW&quot;&gt;\nhttp://www.Speed.Cd&lt;/a&gt;      fast  and The Hottest Private Tracker on the net\n\n(((--Submit for invite!!--)))\n\nPlease Seed back to make the speed Faster!!!\n\n------------------nfo--------------------------\n-http://www.imdb.com/title/tt1858775/\n\nGeneral\nComplete name                    : Rise.Of.The.Damned.2011.DVDRip.XviD-NoGRP.avi\nFormat                           : AVI\nFormat/Info                      : Audio Video Interleave\nFile size                        : 940 MiB\nDuration                         : 1h 22mn\nOverall bit rate                 : 1 597 Kbps\n\nVideo\nID                               : 0\nFormat                           : MPEG-4 Visual\nFormat profile                   : Advanced Simple@L5\nFormat settings, BVOP            : No\nFormat settings, QPel            : No\nFormat settings, GMC             : No warppoints\nFormat settings, Matrix          : Default (MPEG)\nCodec ID                         : XVID\nCodec ID/Hint                    : XviD\nDuration                         : 1h 22mn\nBit rate                         : 1 462 Kbps\nWidth                            : 720 pixels\nHeight                           : 480 pixels\nDisplay aspect ratio             : 3:2\nFrame rate                       : 25.000 fps\nStandard                         : NTSC\nColor space                      : YUV\nChroma subsampling               : 4:2:0\nBit depth                        : 8 bits\nScan type                        : Progressive\nCompression mode                 : Lossy\nBits/(Pixel*Frame)               : 0.169\nStream size                      : 860 MiB (92%)\nWriting library                  : XviD 1.1.2 (UTC 2006-11-01)\n\nAudio\nID                               : 1\nFormat                           : MPEG Audio\nFormat version                   : Version 1\nFormat profile                   : Layer 3\nCodec ID                         : 55\nCodec ID/Hint                    : MP3\nDuration                         : 1h 22mn\nBit rate mode                    : Constant\nBit rate                         : 128 Kbps\nChannel(s)                       : 2 channels\nSampling rate                    : 44.1 KHz\nCompression mode                 : Lossy\nStream size                      : 75.3 MiB (8%)\nAlignment                        : Split accross interleaves\nInterleave, duration             : 80 ms (2.00 video frames)","torrent":{"xt":"urn:btih:1c6fdb7e54231dd2a22f33d8d50fee6cd5037147","amp;dn":"Rise.Of.The.Damned.2011.HDTV.XviD-NoGRP","amp;tr":["udp%3A%2F%2Ftracker.openbittorrent.com%3A80","udp%3A%2F%2Fopen.demonii.com%3A1337","udp%3A%2F%2Ftracker.coppersurfer.tk%3A6969","udp%3A%2F%2Fexodus.desync.com%3A6969"],"infoHash":"1c6fdb7e54231dd2a22f33d8d50fee6cd5037147","infoHashBuffer":{"type":"Buffer","data":[28,111,219,126,84,35,29,210,162,47,51,216,213,15,238,108,213,3,113,71]},"announce":[],"urlList":[]}}